<mxfile host="app.diagrams.net" modified="2022-03-23T22:56:57.851Z" agent="5.0 (Windows NT 10.0; Win64; x64) AppleWebKit/537.36 (KHTML, like Gecko) Chrome/99.0.4844.82 Safari/537.36" etag="1C1QwTTpO14ycKQD9rbB" version="17.2.1" type="github">
  <diagram id="Pq0CwQcdZlicCkVEm3Si" name="Page-1">
    <mxGraphModel dx="1422" dy="794" grid="1" gridSize="10" guides="1" tooltips="1" connect="1" arrows="1" fold="1" page="1" pageScale="1" pageWidth="827" pageHeight="1169" math="0" shadow="0">
      <root>
        <mxCell id="0" />
        <mxCell id="1" parent="0" />
        <mxCell id="9KQJRoik_LoCsC9fpZxv-1" value="API&amp;nbsp;https://hgbrasil.com/apis/cotacao-acao/b3-brasil-bolsa-balcao-b3sa3" style="rounded=0;whiteSpace=wrap;html=1;" vertex="1" parent="1">
          <mxGeometry x="50" y="150" width="260" height="60" as="geometry" />
        </mxCell>
        <mxCell id="9KQJRoik_LoCsC9fpZxv-3" style="edgeStyle=orthogonalEdgeStyle;rounded=0;orthogonalLoop=1;jettySize=auto;html=1;" edge="1" parent="1" source="9KQJRoik_LoCsC9fpZxv-2" target="9KQJRoik_LoCsC9fpZxv-1">
          <mxGeometry relative="1" as="geometry" />
        </mxCell>
        <mxCell id="9KQJRoik_LoCsC9fpZxv-8" style="edgeStyle=orthogonalEdgeStyle;rounded=0;orthogonalLoop=1;jettySize=auto;html=1;" edge="1" parent="1" source="9KQJRoik_LoCsC9fpZxv-2" target="9KQJRoik_LoCsC9fpZxv-7">
          <mxGeometry relative="1" as="geometry" />
        </mxCell>
        <mxCell id="9KQJRoik_LoCsC9fpZxv-2" value="Backend" style="rounded=0;whiteSpace=wrap;html=1;" vertex="1" parent="1">
          <mxGeometry x="120" y="330" width="120" height="60" as="geometry" />
        </mxCell>
        <mxCell id="9KQJRoik_LoCsC9fpZxv-5" style="edgeStyle=orthogonalEdgeStyle;rounded=0;orthogonalLoop=1;jettySize=auto;html=1;" edge="1" parent="1" source="9KQJRoik_LoCsC9fpZxv-4" target="9KQJRoik_LoCsC9fpZxv-2">
          <mxGeometry relative="1" as="geometry" />
        </mxCell>
        <mxCell id="9KQJRoik_LoCsC9fpZxv-4" value="Actor" style="shape=umlActor;verticalLabelPosition=bottom;verticalAlign=top;html=1;outlineConnect=0;" vertex="1" parent="1">
          <mxGeometry x="470" y="330" width="30" height="60" as="geometry" />
        </mxCell>
        <mxCell id="9KQJRoik_LoCsC9fpZxv-7" value="Database" style="shape=cylinder3;whiteSpace=wrap;html=1;boundedLbl=1;backgroundOutline=1;size=15;" vertex="1" parent="1">
          <mxGeometry x="150" y="450" width="60" height="80" as="geometry" />
        </mxCell>
      </root>
    </mxGraphModel>
  </diagram>
</mxfile>
